<?xml version="1.0" encoding="UTF-8" standalone="no"?>
<!DOCTYPE svg PUBLIC "-//W3C//DTD SVG 1.1//EN"
 "http://www.w3.org/Graphics/SVG/1.1/DTD/svg11.dtd">
<!-- Generated by graphviz version 2.40.1 (20161225.0304)
 -->
<!-- Title: %3 Pages: 1 -->
<svg width="362pt" height="548pt"
 viewBox="0.00 0.00 362.25 548.00" xmlns="http://www.w3.org/2000/svg" xmlns:xlink="http://www.w3.org/1999/xlink">
<g id="graph0" class="graph" transform="scale(1 1) rotate(0) translate(4 544)">
<title>%3</title>
<polygon fill="#ffffff" stroke="transparent" points="-4,4 -4,-544 358.2463,-544 358.2463,4 -4,4"/>
<!-- *.java -->
<g id="node1" class="node">
<title>*.java</title>
<ellipse fill="#f0ffff" stroke="#000000" cx="134" cy="-522" rx="32.4942" ry="18"/>
<text text-anchor="middle" x="134" y="-518.3" font-family="Times,serif" font-size="14.00" fill="#000000">*.java</text>
</g>
<!-- javac -->
<g id="node6" class="node">
<title>javac</title>
<ellipse fill="#9bcd9b" stroke="#000000" cx="189" cy="-306" rx="29.4969" ry="18"/>
<text text-anchor="middle" x="189" y="-302.3" font-family="Times,serif" font-size="14.00" fill="#000000">javac</text>
</g>
<!-- *.java&#45;&gt;javac -->
<g id="edge5" class="edge">
<title>*.java&#45;&gt;javac</title>
<path fill="none" stroke="#000000" d="M133.4137,-503.8694C133.01,-473.2324 134.7239,-409.7005 153,-360 156.7915,-349.6893 162.9169,-339.3996 169.0484,-330.6104"/>
<polygon fill="#000000" stroke="#000000" points="171.9973,-332.5079 175.0958,-322.3763 166.3554,-328.3644 171.9973,-332.5079"/>
</g>
<!-- kotlinc -->
<g id="node7" class="node">
<title>kotlinc</title>
<ellipse fill="#9bcd9b" stroke="#000000" cx="63" cy="-450" rx="35.194" ry="18"/>
<text text-anchor="middle" x="63" y="-446.3" font-family="Times,serif" font-size="14.00" fill="#000000">kotlinc</text>
</g>
<!-- *.java&#45;&gt;kotlinc -->
<g id="edge1" class="edge">
<title>*.java&#45;&gt;kotlinc</title>
<path fill="none" stroke="#000000" stroke-dasharray="5,2" d="M118.2428,-506.0209C108.8407,-496.4863 96.7294,-484.2045 86.2442,-473.5716"/>
<polygon fill="#000000" stroke="#000000" points="88.4723,-470.8463 78.9587,-466.1834 83.488,-475.7613 88.4723,-470.8463"/>
</g>
<!-- *.kt -->
<g id="node2" class="node">
<title>*.kt</title>
<ellipse fill="#f0ffff" stroke="#000000" cx="57" cy="-522" rx="27" ry="18"/>
<text text-anchor="middle" x="57" y="-518.3" font-family="Times,serif" font-size="14.00" fill="#000000">*.kt</text>
</g>
<!-- *.kt&#45;&gt;kotlinc -->
<g id="edge2" class="edge">
<title>*.kt&#45;&gt;kotlinc</title>
<path fill="none" stroke="#000000" d="M58.5141,-503.8314C59.1558,-496.131 59.9188,-486.9743 60.6319,-478.4166"/>
<polygon fill="#000000" stroke="#000000" points="64.1229,-478.6694 61.4656,-468.4133 57.1471,-478.088 64.1229,-478.6694"/>
</g>
<!-- *.groovy -->
<g id="node3" class="node">
<title>*.groovy</title>
<ellipse fill="#f0ffff" stroke="#000000" cx="312" cy="-522" rx="42.4939" ry="18"/>
<text text-anchor="middle" x="312" y="-518.3" font-family="Times,serif" font-size="14.00" fill="#000000">*.groovy</text>
</g>
<!-- groovyc -->
<g id="node9" class="node">
<title>groovyc</title>
<ellipse fill="#9bcd9b" stroke="#000000" cx="181" cy="-162" rx="39.7935" ry="18"/>
<text text-anchor="middle" x="181" y="-158.3" font-family="Times,serif" font-size="14.00" fill="#000000">groovyc</text>
</g>
<!-- *.groovy&#45;&gt;groovyc -->
<g id="edge13" class="edge">
<title>*.groovy&#45;&gt;groovyc</title>
<path fill="none" stroke="#000000" d="M320.288,-504.2558C332.0043,-477.5022 352,-424.9633 352,-378 352,-378 352,-378 352,-306 352,-270.3759 264.0695,-211.7962 214.3161,-181.5016"/>
<polygon fill="#000000" stroke="#000000" points="215.8712,-178.3523 205.5001,-176.186 212.2567,-184.3469 215.8712,-178.3523"/>
</g>
<!-- groovystub -->
<g id="node10" class="node">
<title>groovystub</title>
<ellipse fill="#9bcd9b" stroke="#000000" cx="258" cy="-450" rx="50.0912" ry="18"/>
<text text-anchor="middle" x="258" y="-446.3" font-family="Times,serif" font-size="14.00" fill="#000000">groovystub</text>
</g>
<!-- *.groovy&#45;&gt;groovystub -->
<g id="edge11" class="edge">
<title>*.groovy&#45;&gt;groovystub</title>
<path fill="none" stroke="#000000" d="M298.9281,-504.5708C292.4098,-495.8797 284.4001,-485.2001 277.1999,-475.5998"/>
<polygon fill="#000000" stroke="#000000" points="279.9387,-473.4182 271.1387,-467.5182 274.3387,-477.6183 279.9387,-473.4182"/>
</g>
<!-- *.form -->
<g id="node4" class="node">
<title>*.form</title>
<ellipse fill="#f0ffff" stroke="#000000" cx="63" cy="-234" rx="35.194" ry="18"/>
<text text-anchor="middle" x="63" y="-230.3" font-family="Times,serif" font-size="14.00" fill="#000000">*.form</text>
</g>
<!-- formc -->
<g id="node8" class="node">
<title>formc</title>
<ellipse fill="#9bcd9b" stroke="#000000" cx="79" cy="-162" rx="32.4942" ry="18"/>
<text text-anchor="middle" x="79" y="-158.3" font-family="Times,serif" font-size="14.00" fill="#000000">formc</text>
</g>
<!-- *.form&#45;&gt;formc -->
<g id="edge9" class="edge">
<title>*.form&#45;&gt;formc</title>
<path fill="none" stroke="#000000" d="M67.0375,-215.8314C68.7941,-207.9266 70.8917,-198.4872 72.8363,-189.7365"/>
<polygon fill="#000000" stroke="#000000" points="76.2665,-190.4346 75.0192,-179.9134 69.4332,-188.916 76.2665,-190.4346"/>
</g>
<!-- resources/* -->
<g id="node5" class="node">
<title>resources/*</title>
<ellipse fill="#f0ffff" stroke="#000000" cx="289" cy="-162" rx="50.8918" ry="18"/>
<text text-anchor="middle" x="289" y="-158.3" font-family="Times,serif" font-size="14.00" fill="#000000">resources/*</text>
</g>
<!-- res.jar -->
<g id="node16" class="node">
<title>res.jar</title>
<ellipse fill="#eee8cd" stroke="#000000" cx="284" cy="-90" rx="32.4942" ry="18"/>
<text text-anchor="middle" x="284" y="-86.3" font-family="Times,serif" font-size="14.00" fill="#000000">res.jar</text>
</g>
<!-- resources/*&#45;&gt;res.jar -->
<g id="edge17" class="edge">
<title>resources/*&#45;&gt;res.jar</title>
<path fill="none" stroke="#000000" d="M287.7383,-143.8314C287.2035,-136.131 286.5677,-126.9743 285.9734,-118.4166"/>
<polygon fill="#000000" stroke="#000000" points="289.4632,-118.1467 285.2787,-108.4133 282.48,-118.6317 289.4632,-118.1467"/>
</g>
<!-- javap.jar -->
<g id="node12" class="node">
<title>javap.jar</title>
<ellipse fill="#eee8cd" stroke="#000000" cx="196" cy="-234" rx="41.6928" ry="18"/>
<text text-anchor="middle" x="196" y="-230.3" font-family="Times,serif" font-size="14.00" fill="#000000">javap.jar</text>
</g>
<!-- javac&#45;&gt;javap.jar -->
<g id="edge7" class="edge">
<title>javac&#45;&gt;javap.jar</title>
<path fill="none" stroke="#000000" d="M190.7664,-287.8314C191.515,-280.131 192.4053,-270.9743 193.2373,-262.4166"/>
<polygon fill="#000000" stroke="#000000" points="196.7256,-262.7051 194.2098,-252.4133 189.7585,-262.0276 196.7256,-262.7051"/>
</g>
<!-- kotlin.jar -->
<g id="node11" class="node">
<title>kotlin.jar</title>
<ellipse fill="#eee8cd" stroke="#000000" cx="63" cy="-378" rx="42.7926" ry="18"/>
<text text-anchor="middle" x="63" y="-374.3" font-family="Times,serif" font-size="14.00" fill="#000000">kotlin.jar</text>
</g>
<!-- kotlinc&#45;&gt;kotlin.jar -->
<g id="edge3" class="edge">
<title>kotlinc&#45;&gt;kotlin.jar</title>
<path fill="none" stroke="#000000" d="M63,-431.8314C63,-424.131 63,-414.9743 63,-406.4166"/>
<polygon fill="#000000" stroke="#000000" points="66.5001,-406.4132 63,-396.4133 59.5001,-406.4133 66.5001,-406.4132"/>
</g>
<!-- java.jar -->
<g id="node13" class="node">
<title>java.jar</title>
<ellipse fill="#eee8cd" stroke="#000000" cx="79" cy="-90" rx="37.0935" ry="18"/>
<text text-anchor="middle" x="79" y="-86.3" font-family="Times,serif" font-size="14.00" fill="#000000">java.jar</text>
</g>
<!-- formc&#45;&gt;java.jar -->
<g id="edge10" class="edge">
<title>formc&#45;&gt;java.jar</title>
<path fill="none" stroke="#000000" d="M79,-143.8314C79,-136.131 79,-126.9743 79,-118.4166"/>
<polygon fill="#000000" stroke="#000000" points="82.5001,-118.4132 79,-108.4133 75.5001,-118.4133 82.5001,-118.4132"/>
</g>
<!-- groovy.jar -->
<g id="node15" class="node">
<title>groovy.jar</title>
<ellipse fill="#eee8cd" stroke="#000000" cx="181" cy="-90" rx="47.3916" ry="18"/>
<text text-anchor="middle" x="181" y="-86.3" font-family="Times,serif" font-size="14.00" fill="#000000">groovy.jar</text>
</g>
<!-- groovyc&#45;&gt;groovy.jar -->
<g id="edge16" class="edge">
<title>groovyc&#45;&gt;groovy.jar</title>
<path fill="none" stroke="#000000" d="M181,-143.8314C181,-136.131 181,-126.9743 181,-118.4166"/>
<polygon fill="#000000" stroke="#000000" points="184.5001,-118.4132 181,-108.4133 177.5001,-118.4133 184.5001,-118.4132"/>
</g>
<!-- groovy.stubs.src.jar -->
<g id="node14" class="node">
<title>groovy.stubs.src.jar</title>
<ellipse fill="#eee8cd" stroke="#000000" cx="243" cy="-378" rx="80.6858" ry="18"/>
<text text-anchor="middle" x="243" y="-374.3" font-family="Times,serif" font-size="14.00" fill="#000000">groovy.stubs.src.jar</text>
</g>
<!-- groovystub&#45;&gt;groovy.stubs.src.jar -->
<g id="edge12" class="edge">
<title>groovystub&#45;&gt;groovy.stubs.src.jar</title>
<path fill="none" stroke="#000000" d="M254.2149,-431.8314C252.6106,-424.131 250.703,-414.9743 248.9201,-406.4166"/>
<polygon fill="#000000" stroke="#000000" points="252.3021,-405.4892 246.8361,-396.4133 245.4493,-406.9169 252.3021,-405.4892"/>
</g>
<!-- kotlin.jar&#45;&gt;javac -->
<g id="edge4" class="edge">
<title>kotlin.jar&#45;&gt;javac</title>
<path fill="none" stroke="#000000" stroke-dasharray="5,2" d="M88.498,-363.4297C108.7584,-351.8523 137.1548,-335.6258 158.5974,-323.3729"/>
<polygon fill="#000000" stroke="#000000" points="160.3715,-326.3903 167.3174,-318.39 156.8985,-320.3126 160.3715,-326.3903"/>
</g>
<!-- kotlin.jar&#45;&gt;groovyc -->
<g id="edge14" class="edge">
<title>kotlin.jar&#45;&gt;groovyc</title>
<path fill="none" stroke="#000000" stroke-dasharray="5,2" d="M71.1843,-360.1333C85.229,-329.8851 115.2872,-266.9113 145,-216 150.5374,-206.512 157.0788,-196.4183 163.0562,-187.5565"/>
<polygon fill="#000000" stroke="#000000" points="166.0329,-189.4039 168.7875,-179.1734 160.2543,-185.4532 166.0329,-189.4039"/>
</g>
<!-- out.jar -->
<g id="node17" class="node">
<title>out.jar</title>
<ellipse fill="#bdb76b" stroke="#000000" cx="130" cy="-18" rx="33.5952" ry="18"/>
<text text-anchor="middle" x="130" y="-14.3" font-family="Times,serif" font-size="14.00" fill="#000000">out.jar</text>
</g>
<!-- kotlin.jar&#45;&gt;out.jar -->
<g id="edge19" class="edge">
<title>kotlin.jar&#45;&gt;out.jar</title>
<path fill="none" stroke="#000000" d="M49.6393,-360.4484C31.1462,-334.3553 0,-283.1182 0,-234 0,-234 0,-234 0,-162 0,-119.3959 5.3219,-104.3888 33,-72 48.6029,-53.7415 71.9985,-40.4636 91.9037,-31.6436"/>
<polygon fill="#000000" stroke="#000000" points="93.4864,-34.7749 101.3456,-27.6696 90.7709,-28.3231 93.4864,-34.7749"/>
</g>
<!-- javap.jar&#45;&gt;formc -->
<g id="edge8" class="edge">
<title>javap.jar&#45;&gt;formc</title>
<path fill="none" stroke="#000000" d="M172.041,-219.256C153.9524,-208.1246 128.9996,-192.769 109.4885,-180.7621"/>
<polygon fill="#000000" stroke="#000000" points="111.302,-177.7685 100.951,-175.5083 107.6333,-183.7301 111.302,-177.7685"/>
</g>
<!-- javap.jar&#45;&gt;groovyc -->
<g id="edge15" class="edge">
<title>javap.jar&#45;&gt;groovyc</title>
<path fill="none" stroke="#000000" stroke-dasharray="5,2" d="M192.2149,-215.8314C190.6106,-208.131 188.703,-198.9743 186.9201,-190.4166"/>
<polygon fill="#000000" stroke="#000000" points="190.3021,-189.4892 184.8361,-180.4133 183.4493,-190.9169 190.3021,-189.4892"/>
</g>
<!-- java.jar&#45;&gt;out.jar -->
<g id="edge20" class="edge">
<title>java.jar&#45;&gt;out.jar</title>
<path fill="none" stroke="#000000" d="M91.0863,-72.937C97.3742,-64.06 105.1833,-53.0354 112.1521,-43.1971"/>
<polygon fill="#000000" stroke="#000000" points="115.0763,-45.1239 118.0005,-34.9405 109.3642,-41.0777 115.0763,-45.1239"/>
</g>
<!-- groovy.stubs.src.jar&#45;&gt;javac -->
<g id="edge6" class="edge">
<title>groovy.stubs.src.jar&#45;&gt;javac</title>
<path fill="none" stroke="#000000" stroke-dasharray="5,2" d="M229.6517,-360.2022C222.9846,-351.3127 214.8104,-340.4138 207.5447,-330.7263"/>
<polygon fill="#000000" stroke="#000000" points="210.2544,-328.5058 201.4544,-322.6058 204.6544,-332.7059 210.2544,-328.5058"/>
</g>
<!-- groovy.jar&#45;&gt;out.jar -->
<g id="edge21" class="edge">
<title>groovy.jar&#45;&gt;out.jar</title>
<path fill="none" stroke="#000000" d="M168.6543,-72.5708C162.5152,-63.9038 154.9753,-53.2592 148.1897,-43.6796"/>
<polygon fill="#000000" stroke="#000000" points="150.8683,-41.4059 142.232,-35.2687 145.1561,-45.452 150.8683,-41.4059"/>
</g>
<!-- res.jar&#45;&gt;out.jar -->
<g id="edge18" class="edge">
<title>res.jar&#45;&gt;out.jar</title>
<path fill="none" stroke="#000000" d="M258.9145,-78.2717C233.3389,-66.3143 193.4601,-47.6697 164.8294,-34.2839"/>
<polygon fill="#000000" stroke="#000000" points="166.1292,-31.028 155.588,-29.9632 163.1644,-37.3691 166.1292,-31.028"/>
</g>
</g>
</svg>
